# This file uses centimeters as units for non-parametric coordinates.

mtllib OuterDoorFrame.mtl
g default
v -4.312508 0.039958 -35.934851
v 4.312508 0.039958 -35.934851
v -4.312508 6.966179 -35.934851
v 4.312508 6.966179 -35.934851
v -4.312508 6.966179 -37.059266
v 4.312508 6.966179 -37.059266
v -4.312508 0.039958 -37.059266
v 4.312508 0.039958 -37.059266
v -2.812508 0.039958 -35.934851
v 2.812508 0.039958 -35.934851
v 2.812508 5.466180 -35.934851
v -2.812508 5.466180 -35.934851
v -2.812508 5.466180 -37.059266
v 2.812508 5.466180 -37.059266
v 2.812508 0.039958 -37.059266
v -2.812508 0.039958 -37.059266
vt 0.375000 0.000000
vt 0.625000 0.000000
vt 0.375000 0.250000
vt 0.625000 0.250000
vt 0.375000 0.500000
vt 0.625000 0.500000
vt 0.375000 0.750000
vt 0.625000 0.750000
vt 0.875000 0.000000
vt 0.875000 0.250000
vt 0.125000 0.000000
vt 0.125000 0.250000
vt 0.386654 0.002340
vt 0.613691 0.001949
vt 0.588407 0.202119
vt 0.412711 0.203384
vt 0.375000 0.500000
vt 0.625000 0.500000
vt 0.625000 0.750000
vt 0.375000 0.750000
vt 0.000000 0.000000
vt 1.000000 0.000000
vt 0.999861 1.177730
vt 0.000183 1.177778
vt 0.000000 0.000000
vt 1.000000 0.000000
vt 0.999950 1.177841
vt 0.000161 1.177807
vt 0.000000 0.000000
vt 1.000000 0.000000
vt 0.999839 1.177807
vt 0.000050 1.177841
vn 0.000000 1.000000 0.000000
vn 0.000000 1.000000 0.000000
vn 0.000000 1.000000 0.000000
vn 0.000000 1.000000 0.000000
vn 1.000000 0.000000 0.000000
vn 1.000000 0.000000 0.000000
vn 1.000000 0.000000 0.000000
vn 1.000000 0.000000 0.000000
vn -1.000000 0.000000 0.000000
vn -1.000000 0.000000 0.000000
vn -1.000000 0.000000 0.000000
vn -1.000000 0.000000 0.000000
vn 0.000000 0.000000 1.000000
vn 0.000000 0.000000 1.000000
vn 0.000000 0.000000 1.000000
vn 0.000000 0.000000 1.000000
vn -0.000000 0.000000 1.000000
vn -0.000000 0.000000 1.000000
vn -0.000000 0.000000 1.000000
vn -0.000000 0.000000 1.000000
vn 0.000000 0.000000 -1.000000
vn 0.000000 0.000000 -1.000000
vn 0.000000 0.000000 -1.000000
vn 0.000000 0.000000 -1.000000
vn 0.000000 0.000000 -1.000000
vn 0.000000 0.000000 -1.000000
vn 0.000000 0.000000 -1.000000
vn 0.000000 0.000000 -1.000000
vn 0.000000 -1.000000 0.000000
vn 0.000000 -1.000000 0.000000
vn 0.000000 -1.000000 0.000000
vn 0.000000 -1.000000 0.000000
vn -1.000000 0.000000 0.000000
vn -1.000000 0.000000 0.000000
vn -1.000000 0.000000 0.000000
vn -1.000000 0.000000 0.000000
vn 1.000000 0.000000 0.000000
vn 1.000000 0.000000 0.000000
vn 1.000000 0.000000 0.000000
vn 1.000000 0.000000 0.000000
s off
g FrontDoor_Frame
usemtl initialShadingGroup
f 3/3/1 4/4/2 6/6/3 5/5/4
f 2/2/5 8/9/6 6/10/7 4/4/8
f 7/11/9 1/1/10 3/3/11 5/12/12
s 1
f 2/2/13 4/4/14 11/15/15 10/14/16
f 4/4/14 3/3/17 12/16/18 11/15/15
f 3/3/17 1/1/19 9/13/20 12/16/18
s 2
f 5/5/21 6/6/22 14/18/23 13/17/24
f 6/6/22 8/8/25 15/19/26 14/18/23
f 7/7/27 5/5/21 13/17/24 16/20/28
s off
f 13/21/29 14/22/30 11/23/31 12/24/32
f 14/25/33 15/26/34 10/27/35 11/28/36
f 16/29/37 13/30/38 12/31/39 9/32/40
g default
v -2.812508 0.039958 -34.202533
v 2.812508 0.039958 -34.202533
v -2.812508 0.328051 -34.202533
v 2.812508 0.328051 -34.202533
v -2.812508 0.328051 -39.051339
v 2.812508 0.328051 -39.051339
v -2.812508 0.039958 -39.051339
v 2.812508 0.039958 -39.051339
vt 0.375000 0.000000
vt 0.625000 0.000000
vt 0.375000 0.250000
vt 0.625000 0.250000
vt 0.375000 0.500000
vt 0.625000 0.500000
vt 0.375000 0.750000
vt 0.625000 0.750000
vt 0.875000 0.000000
vt 0.875000 0.250000
vt 0.125000 0.000000
vt 0.125000 0.250000
vn 0.000000 0.000000 1.000000
vn 0.000000 0.000000 1.000000
vn 0.000000 0.000000 1.000000
vn 0.000000 0.000000 1.000000
vn 0.000000 1.000000 0.000000
vn 0.000000 1.000000 0.000000
vn 0.000000 1.000000 0.000000
vn 0.000000 1.000000 0.000000
vn 0.000000 0.000000 -1.000000
vn 0.000000 0.000000 -1.000000
vn 0.000000 0.000000 -1.000000
vn 0.000000 0.000000 -1.000000
vn 1.000000 0.000000 0.000000
vn 1.000000 0.000000 0.000000
vn 1.000000 0.000000 0.000000
vn 1.000000 0.000000 0.000000
vn -1.000000 0.000000 0.000000
vn -1.000000 0.000000 0.000000
vn -1.000000 0.000000 0.000000
vn -1.000000 0.000000 0.000000
s off
g Drempel
usemtl initialShadingGroup
f 17/33/41 18/34/42 20/36/43 19/35/44
f 19/35/45 20/36/46 22/38/47 21/37/48
f 21/37/49 22/38/50 24/40/51 23/39/52
f 18/34/53 24/41/54 22/42/55 20/36/56
f 23/43/57 17/33/58 19/35/59 21/44/60
