# This file uses centimeters as units for non-parametric coordinates.

mtllib BoekV2.mtl
g default
v -0.117744 -0.164668 0.041252
v 0.117744 -0.168127 0.041252
v -0.117744 0.164668 0.041252
v 0.117744 0.168127 0.041252
v -0.117744 0.164668 -0.041252
v 0.117744 0.168127 -0.041252
v -0.117744 -0.164668 -0.041252
v 0.117744 -0.168127 -0.041252
v -0.094195 0.164668 0.035066
v -0.094195 0.164668 -0.035066
v -0.094195 -0.164668 -0.035066
v -0.094195 -0.164668 0.035066
v 0.112900 0.161209 -0.032363
v -0.090320 0.164668 -0.027510
v -0.117744 0.164668 -0.033752
v -0.117744 -0.164668 -0.033752
v -0.090320 -0.164668 -0.027510
v 0.112900 -0.161209 -0.032363
v 0.112900 0.161209 0.032363
v -0.090320 0.164668 0.027510
v -0.117744 0.164668 0.033752
v -0.117744 -0.164668 0.033752
v -0.090320 -0.164668 0.027510
v 0.112900 -0.161209 0.032363
v 0.112900 0.161209 0.032363
v 0.112900 0.161209 -0.032363
v 0.112900 -0.161209 0.032363
v 0.112900 -0.161209 -0.032363
v 0.112900 0.161209 0.032363
v 0.112900 0.161209 -0.032363
v 0.112900 -0.161209 0.032363
v 0.112900 -0.161209 -0.032363
v 0.112900 0.161209 0.032363
v 0.112900 0.161209 -0.032363
v 0.112900 -0.161209 0.032363
v 0.112900 -0.161209 -0.032363
v -0.090320 0.164668 0.027510
v -0.090320 0.164668 -0.027510
v 0.112900 0.161209 0.032363
v 0.112900 0.161209 -0.032363
v -0.090320 -0.164668 0.027510
v 0.112900 -0.161209 0.032363
v -0.090320 -0.164668 -0.027510
v 0.112900 -0.161209 -0.032363
v 0.112900 0.161209 0.032363
v 0.112900 0.161209 -0.032363
v 0.112900 -0.161209 0.032363
v 0.112900 -0.161209 -0.032363
vt 0.375000 0.000000
vt 0.625000 0.000000
vt 0.375000 0.250000
vt 0.625000 0.250000
vt 0.375000 0.500000
vt 0.625000 0.500000
vt 0.375000 0.750000
vt 0.625000 0.750000
vt 0.375000 1.000000
vt 0.625000 1.000000
vt 0.875000 0.000000
vt 0.875000 0.250000
vt 0.125000 0.000000
vt 0.125000 0.250000
vt 0.400000 0.250000
vt 0.400000 0.500000
vt 0.400000 0.750000
vt 0.400000 0.000000
vt 0.400000 1.000000
vt 0.625000 0.477273
vt 0.852273 0.250000
vt 0.400000 0.477273
vt 0.147727 0.250000
vt 0.375000 0.477273
vt 0.147727 0.000000
vt 0.375000 0.772727
vt 0.400000 0.772727
vt 0.625000 0.772727
vt 0.852273 0.000000
vt 0.625000 0.272727
vt 0.647727 0.250000
vt 0.400000 0.272727
vt 0.352273 0.250000
vt 0.375000 0.272727
vt 0.352273 0.000000
vt 0.375000 0.977273
vt 0.400000 0.977273
vt 0.625000 0.977273
vt 0.647727 0.000000
vt 0.852273 0.250000
vt 0.647727 0.250000
vt 0.647727 0.000000
vt 0.852273 0.000000
vt 0.852273 0.250000
vt 0.647727 0.250000
vt 0.647727 0.000000
vt 0.852273 0.000000
vt 0.852273 0.250000
vt 0.647727 0.250000
vt 0.647727 0.000000
vt 0.852273 0.000000
vt 0.400000 0.477273
vt 0.400000 0.272727
vt 0.625000 0.272727
vt 0.625000 0.477273
vt 0.625000 0.977273
vt 0.400000 0.977273
vt 0.400000 0.772727
vt 0.625000 0.772727
vt 0.852273 0.250000
vt 0.647727 0.250000
vt 0.647727 0.000000
vt 0.852273 0.000000
vn 0.254073 0.000000 0.967185
vn -0.000461 0.000000 1.000000
vn -0.000461 0.000000 1.000000
vn 0.254073 0.000000 0.967185
vn 0.000000 1.000000 -0.000005
vn 0.009002 0.940910 -0.338537
vn 0.004771 0.983770 -0.179372
vn 0.000002 1.000000 -0.000001
vn 0.254073 0.000000 -0.967185
vn -0.000461 0.000000 -1.000000
vn -0.000461 0.000000 -1.000000
vn 0.254073 0.000000 -0.967185
vn 0.000002 -1.000000 -0.000001
vn 0.004771 -0.983770 -0.179372
vn 0.009002 -0.940910 -0.338538
vn 0.000000 -1.000000 -0.000006
vn 0.878053 0.000000 -0.478563
vn 0.878053 0.000000 -0.478563
vn 0.878053 0.000000 -0.478563
vn 0.878053 0.000000 -0.478563
vn -1.000000 0.000000 0.000000
vn -1.000000 0.000000 0.000000
vn -1.000000 0.000000 0.000000
vn -1.000000 0.000000 0.000000
vn 0.010324 0.921498 -0.388246
vn 0.010324 0.921498 -0.388246
vn -0.029176 0.000000 -0.999574
vn -0.029176 0.000000 -0.999574
vn 0.010324 -0.921498 -0.388246
vn 0.010324 -0.921498 -0.388246
vn -0.029176 0.000000 0.999574
vn -0.029176 0.000000 0.999574
vn 0.004771 0.983770 0.179372
vn 0.010324 0.921498 0.388246
vn 0.010324 0.921498 0.388246
vn 0.009002 0.940910 0.338537
vn 0.000002 1.000000 0.000001
vn 0.000000 1.000000 0.000006
vn -1.000000 0.000000 0.000000
vn -1.000000 0.000000 0.000000
vn -1.000000 0.000000 0.000000
vn -1.000000 0.000000 0.000000
vn 0.000000 -1.000000 0.000005
vn 0.009002 -0.940910 0.338538
vn 0.004771 -0.983770 0.179372
vn 0.000002 -1.000000 0.000001
vn 0.010324 -0.921498 0.388246
vn 0.010324 -0.921498 0.388246
vn 0.878053 0.000000 0.478563
vn 0.878053 0.000000 0.478563
vn 0.878053 0.000000 0.478563
vn 0.878053 0.000000 0.478563
vn -0.000000 -1.000000 0.000000
vn -0.000000 -1.000000 0.000000
vn -0.000000 -1.000000 0.000000
vn -0.000000 -1.000000 0.000000
vn -0.000000 -1.000000 0.000000
vn -0.000000 -1.000000 0.000000
vn -0.000000 -1.000000 0.000000
vn -0.000000 -1.000000 0.000000
vn 0.049988 0.000000 0.998750
vn 0.049988 0.000000 0.998750
vn 0.049988 0.000000 0.998750
vn 0.049988 0.000000 0.998750
vn 0.000000 -1.000000 0.000000
vn 0.000000 -1.000000 0.000000
vn 0.000000 -1.000000 0.000000
vn 0.000000 -1.000000 0.000000
vn 0.074865 0.000000 -0.997194
vn 0.074865 0.000000 -0.997194
vn 0.074865 0.000000 -0.997194
vn 0.074865 0.000000 -0.997194
vn -1.000000 0.000000 0.000000
vn -1.000000 0.000000 0.000000
vn -1.000000 0.000000 0.000000
vn -1.000000 0.000000 0.000000
vn -1.000000 0.000000 0.000000
vn -1.000000 0.000000 0.000000
vn -1.000000 0.000000 0.000000
vn -1.000000 0.000000 0.000000
vn -1.000000 0.000000 0.000000
vn -1.000000 0.000000 0.000000
vn -1.000000 0.000000 0.000000
vn -1.000000 0.000000 0.000000
vn 0.083879 0.000000 -0.996476
vn 0.083879 0.000000 -0.996476
vn 0.083879 0.000000 -0.996476
vn 0.083879 0.000000 -0.996476
vn 0.376463 0.926431 0.000000
vn 0.376463 0.926432 0.000000
vn 0.376464 0.926432 0.000000
vn 0.376464 0.926432 0.000000
vn 0.059047 0.000000 0.998255
vn 0.059047 0.000000 0.998255
vn 0.059047 0.000000 0.998255
vn 0.059047 0.000000 0.998255
vn 0.000000 1.000000 0.000000
vn 0.000000 1.000000 0.000000
vn 0.000000 1.000000 0.000000
vn 0.000000 1.000000 0.000000
vn 0.009725 0.963702 0.266805
vn 0.009725 0.963701 0.266805
vn 0.009725 0.963701 0.266805
vn 0.009725 0.963701 0.266805
vn 0.000000 -1.000000 0.000000
vn 0.000000 -1.000000 0.000000
vn 0.000000 -1.000000 0.000000
vn 0.000000 -1.000000 0.000000
vn 0.000000 1.000000 -0.000002
vn 0.000000 1.000000 -0.000002
vn 0.000000 1.000000 -0.000002
vn 0.000000 1.000000 -0.000002
vn 0.012488 -0.999922 0.000001
vn 0.012488 -0.999922 0.000001
vn 0.012488 -0.999922 0.000001
vn 0.012488 -0.999922 0.000001
vn 0.000000 -1.000000 0.000000
vn 0.000000 -1.000000 0.000000
vn 0.000000 -1.000000 0.000000
vn 0.000000 -1.000000 0.000000
vn 0.013511 -0.992245 -0.123557
vn 0.013511 -0.992245 -0.123557
vn 0.013511 -0.992245 -0.123557
vn 0.013511 -0.992245 -0.123557
vn 0.000000 1.000000 0.000000
vn 0.000000 1.000000 0.000000
vn 0.000000 1.000000 0.000000
vn 0.000000 1.000000 0.000000
vn 0.000000 1.000000 0.000000
vn 0.000000 1.000000 0.000000
vn 0.000000 1.000000 0.000000
vn 0.000000 1.000000 0.000000
vn 0.000000 0.000000 1.000000
vn 0.000000 0.000000 1.000000
vn 0.000000 0.000000 1.000000
vn 0.000000 0.000000 1.000000
vn 0.000000 -1.000000 0.000000
vn 0.000000 -1.000000 0.000000
vn 0.000000 -1.000000 0.000000
vn 0.000000 -1.000000 0.000000
vn 0.000000 0.000000 -1.000000
vn 0.000000 0.000000 -1.000000
vn 0.000000 0.000000 -1.000000
vn 0.000000 0.000000 -1.000000
vn 1.000000 0.000000 0.000000
vn 1.000000 0.000000 0.000000
vn 1.000000 0.000000 0.000000
vn 1.000000 0.000000 0.000000
vn 0.023874 0.000000 -0.999715
vn 0.023874 0.000000 -0.999715
vn 0.023874 0.000000 -0.999715
vn 0.023874 0.000000 -0.999715
vn 0.023874 0.000000 0.999715
vn 0.023874 0.000000 0.999715
vn 0.023874 0.000000 0.999715
vn 0.023874 0.000000 0.999715
s 1
g pCube1
usemtl initialShadingGroup
f 1/1/1 12/18/2 9/15/3 3/3/4
s 2
f 3/3/5 9/15/6 20/32/7 21/34/8
s 3
f 5/5/9 10/16/10 11/17/11 7/7/12
s 4
f 22/36/13 23/37/14 12/19/15 1/9/16
s off
f 2/2/17 24/39/18 19/31/19 4/4/20
s 5
f 22/35/21 1/1/22 3/3/23 21/33/24
s 2
f 9/15/6 4/4/25 19/30/26 20/32/7
s 3
f 11/17/11 10/16/10 6/6/27 8/8/28
s 4
f 12/19/15 23/37/14 24/38/29 2/10/30
s 1
f 9/15/3 12/18/2 2/2/31 4/4/32
s 2
f 14/22/33 13/20/34 6/6/35 10/16/36
f 15/24/37 14/22/33 10/16/36 5/5/38
s 5
f 7/13/39 16/25/40 15/23/41 5/14/42
s 4
f 7/7/43 11/17/44 17/27/45 16/26/46
f 18/28/47 17/27/45 11/17/44 8/8/48
s off
f 13/21/49 18/29/50 8/11/51 6/12/52
s 2
f 15/24/37 21/34/8 20/32/7 14/22/33
s 5
f 22/35/21 21/33/24 15/23/41 16/25/40
s 4
f 23/37/14 22/36/13 16/26/46 17/27/45
s off
f 30/44/53 26/40/54 13/21/55 19/31/56 25/41/57 29/45/58 33/49/59 34/48/60
f 19/31/61 24/39/62 27/42/63 25/41/64
f 24/39/65 18/29/66 28/43/67 27/42/68
f 18/29/69 13/21/70 26/40/71 28/43/72
f 25/41/73 27/42/74 31/46/75 29/45/76
f 27/42/77 28/43/78 32/47/79 31/46/80
f 28/43/81 26/40/82 30/44/83 32/47/84
f 29/45/85 31/46/86 35/50/87 33/49/88
f 31/46/89 32/47/90 36/51/91 35/50/92
f 32/47/93 30/44/94 34/48/95 36/51/96
f 14/22/97 20/32/98 37/53/99 38/52/100
f 20/32/101 19/30/102 39/54/103 37/53/104
f 19/30/105 13/20/106 40/55/107 39/54/108
f 13/20/109 14/22/110 38/52/111 40/55/112
f 24/38/113 23/37/114 41/57/115 42/56/116
f 23/37/117 17/27/118 43/58/119 41/57/120
f 17/27/121 18/28/122 44/59/123 43/58/124
f 18/28/125 24/38/126 42/56/127 44/59/128
f 34/48/129 33/49/130 45/61/131 46/60/132
f 33/49/133 35/50/134 47/62/135 45/61/136
f 35/50/137 36/51/138 48/63/139 47/62/140
f 36/51/141 34/48/142 46/60/143 48/63/144
f 38/52/145 37/53/146 41/57/147 43/58/148
f 37/53/149 39/54/150 42/56/151 41/57/152
f 40/55/153 38/52/154 43/58/155 44/59/156
g default
v -0.088532 -0.155727 0.025948
v 0.097330 -0.155727 0.030362
v -0.088532 0.155727 0.025948
v 0.097330 0.155727 0.030362
v -0.088532 0.155727 -0.025948
v 0.097330 0.155727 -0.030362
v -0.088532 -0.155727 -0.025948
v 0.097330 -0.155727 -0.030362
v -0.088532 0.155727 -0.021230
v -0.088532 -0.155727 -0.021230
v 0.097330 -0.155727 -0.024842
v 0.097330 0.155727 -0.024842
v -0.087759 0.155727 -0.016512
v -0.087759 -0.155727 -0.016512
v 0.096557 -0.155727 -0.019322
v 0.096557 0.155727 -0.019322
v -0.088532 0.155727 -0.011795
v -0.088532 -0.155727 -0.011795
v 0.097330 -0.155727 -0.013801
v 0.097330 0.155727 -0.013801
v -0.087759 0.155727 -0.007077
v -0.087759 -0.155727 -0.007077
v 0.096557 -0.155727 -0.008281
v 0.096557 0.155727 -0.008281
v -0.088532 0.155727 -0.002359
v -0.088532 -0.155727 -0.002359
v 0.097330 -0.155727 -0.002760
v 0.097330 0.155727 -0.002760
v -0.088044 0.155727 0.002359
v -0.088532 -0.155727 0.002359
v 0.097330 -0.155727 0.002760
v 0.096842 0.155727 0.002760
v -0.088532 0.155727 0.007077
v -0.088532 -0.155727 0.007077
v 0.097330 -0.155727 0.008281
v 0.097330 0.155727 0.008281
v -0.088019 0.155727 0.011795
v -0.088019 -0.155727 0.011795
v 0.096817 -0.155727 0.013801
v 0.096817 0.155727 0.013801
v -0.088532 0.155727 0.016512
v -0.088532 -0.155727 0.016512
v 0.097330 -0.155727 0.019322
v 0.097330 0.155727 0.019322
v -0.088019 0.155727 0.021230
v -0.088019 -0.155727 0.021230
v 0.096817 -0.155727 0.024842
v 0.096817 0.155727 0.024842
vt 0.375000 0.000000
vt 0.625000 0.000000
vt 0.375000 0.250000
vt 0.625000 0.250000
vt 0.375000 0.500000
vt 0.625000 0.500000
vt 0.375000 0.750000
vt 0.625000 0.750000
vt 0.375000 1.000000
vt 0.625000 1.000000
vt 0.875000 0.000000
vt 0.875000 0.250000
vt 0.125000 0.000000
vt 0.125000 0.250000
vt 0.147727 0.250000
vt 0.375000 0.477273
vt 0.147727 0.000000
vt 0.375000 0.772727
vt 0.625000 0.772727
vt 0.852273 0.000000
vt 0.625000 0.477273
vt 0.852273 0.250000
vt 0.170455 0.250000
vt 0.375000 0.454545
vt 0.170455 0.000000
vt 0.375000 0.795455
vt 0.625000 0.795455
vt 0.829545 0.000000
vt 0.625000 0.454545
vt 0.829545 0.250000
vt 0.193182 0.250000
vt 0.375000 0.431818
vt 0.193182 0.000000
vt 0.375000 0.818182
vt 0.625000 0.818182
vt 0.806818 0.000000
vt 0.625000 0.431818
vt 0.806818 0.250000
vt 0.215909 0.250000
vt 0.375000 0.409091
vt 0.215909 0.000000
vt 0.375000 0.840909
vt 0.625000 0.840909
vt 0.784091 0.000000
vt 0.625000 0.409091
vt 0.784091 0.250000
vt 0.238636 0.250000
vt 0.375000 0.386364
vt 0.238636 0.000000
vt 0.375000 0.863636
vt 0.625000 0.863636
vt 0.761364 0.000000
vt 0.625000 0.386364
vt 0.761364 0.250000
vt 0.261364 0.250000
vt 0.375000 0.363636
vt 0.261364 0.000000
vt 0.375000 0.886364
vt 0.625000 0.886364
vt 0.738636 0.000000
vt 0.625000 0.363636
vt 0.738636 0.250000
vt 0.284091 0.250000
vt 0.375000 0.340909
vt 0.284091 0.000000
vt 0.375000 0.909091
vt 0.625000 0.909091
vt 0.715909 0.000000
vt 0.625000 0.340909
vt 0.715909 0.250000
vt 0.306818 0.250000
vt 0.375000 0.318182
vt 0.306818 0.000000
vt 0.375000 0.931818
vt 0.625000 0.931818
vt 0.693182 0.000000
vt 0.625000 0.318182
vt 0.693182 0.250000
vt 0.329545 0.250000
vt 0.375000 0.295455
vt 0.329545 0.000000
vt 0.375000 0.954545
vt 0.625000 0.954545
vt 0.670455 0.000000
vt 0.625000 0.295455
vt 0.670455 0.250000
vt 0.352273 0.250000
vt 0.375000 0.272727
vt 0.352273 0.000000
vt 0.375000 0.977273
vt 0.625000 0.977273
vt 0.647727 0.000000
vt 0.625000 0.272727
vt 0.647727 0.250000
vn -0.023745 0.000000 0.999718
vn -0.023745 0.000000 0.999718
vn -0.023745 0.000000 0.999718
vn -0.023745 0.000000 0.999718
vn -0.000000 1.000000 -0.000003
vn -0.000000 1.000000 -0.000003
vn -0.000000 1.000000 -0.000001
vn -0.000000 1.000000 -0.000001
vn -0.023745 0.000000 -0.999718
vn -0.023745 0.000000 -0.999718
vn -0.023745 0.000000 -0.999718
vn -0.023745 0.000000 -0.999718
vn 0.000000 -1.000000 0.000000
vn 0.000000 -1.000000 -0.000000
vn 0.000000 -1.000000 -0.000003
vn 0.000000 -1.000000 -0.000003
vn 0.995709 -0.000000 -0.092537
vn 1.000000 -0.000000 0.000000
vn 1.000000 -0.000000 0.000000
vn 0.995709 -0.000000 -0.092537
vn -1.000000 0.000000 -0.000000
vn -0.994139 0.000000 -0.108109
vn -0.994139 0.000000 -0.108109
vn -1.000000 0.000000 -0.000000
vn -1.000000 0.000000 0.000000
vn -0.996661 0.000000 0.081654
vn -0.996661 0.000000 0.081654
vn -1.000000 0.000000 0.000000
vn 0.000000 -1.000000 0.000000
vn 0.000000 -1.000000 0.000000
vn 0.000000 -1.000000 0.000000
vn 0.000000 -1.000000 0.000000
vn 0.997558 0.000000 0.069845
vn 0.997558 0.000000 0.069845
vn 1.000000 0.000000 0.000000
vn 1.000000 0.000000 0.000000
vn 0.000000 1.000000 0.000000
vn 0.000000 1.000000 0.000000
vn 0.000000 1.000000 0.000000
vn 0.000000 1.000000 0.000000
vn -1.000000 0.000000 0.000000
vn -1.000000 0.000000 0.000000
vn 0.000000 -1.000000 0.000000
vn 0.000000 -1.000000 0.000000
vn 1.000000 0.000000 -0.000000
vn 1.000000 0.000000 -0.000000
vn 0.000000 1.000000 0.000000
vn 0.000000 1.000000 0.000000
vn -1.000000 0.000000 0.000000
vn -1.000000 0.000000 0.000000
vn 0.000000 -1.000000 0.000000
vn 0.000000 -1.000000 0.000000
vn 1.000000 0.000000 -0.000000
vn 1.000000 0.000000 -0.000000
vn 0.000000 1.000000 0.000000
vn 0.000000 1.000000 0.000000
vn -1.000000 0.000000 0.000000
vn -1.000000 0.000000 0.000000
vn 0.000000 -1.000000 0.000000
vn 0.000000 -1.000000 0.000000
vn 1.000000 0.000000 0.000000
vn 1.000000 0.000000 0.000000
vn 0.000000 1.000000 0.000000
vn 0.000000 1.000000 0.000000
vn -0.998433 0.000391 -0.055956
vn -0.998433 0.000391 -0.055956
vn 0.000000 -1.000000 0.000000
vn 0.000000 -1.000000 0.000000
vn 0.998855 0.000392 -0.047841
vn 0.998855 0.000392 -0.047841
vn 0.000000 1.000000 0.000000
vn 0.000000 1.000000 0.000000
vn -1.000000 0.000784 -0.000000
vn -1.000000 0.000784 0.000000
vn 0.000000 -1.000000 0.000000
vn 0.000000 -1.000000 0.000000
vn 1.000000 0.000784 -0.000000
vn 1.000000 0.000784 0.000000
vn 0.000000 1.000000 0.000000
vn 0.000000 1.000000 0.000000
vn -0.999594 0.000392 0.028477
vn -0.999594 0.000392 0.028477
vn 0.000000 -1.000000 0.000000
vn 0.000000 -1.000000 0.000000
vn 0.999704 0.000392 0.024339
vn 0.999704 0.000392 0.024339
vn 0.000000 1.000000 -0.000000
vn 0.000000 1.000000 -0.000000
vn -1.000000 0.000000 -0.000000
vn -1.000000 0.000000 -0.000000
vn 0.000000 -1.000000 0.000001
vn 0.000000 -1.000000 0.000001
vn 1.000000 0.000000 0.000000
vn 1.000000 0.000000 0.000000
vn 0.000000 1.000000 -0.000001
vn 0.000000 1.000000 -0.000001
vn -1.000000 0.000000 0.000001
vn -1.000000 0.000000 0.000001
vn 0.000000 -1.000000 0.000002
vn 0.000000 -1.000000 0.000002
vn 1.000000 -0.000000 0.000001
vn 1.000000 -0.000000 0.000000
vn -0.000000 1.000000 -0.000000
vn -0.000000 1.000000 0.000000
s off
g pCube2
usemtl initialShadingGroup
f 49/64/157 50/65/158 52/67/159 51/66/160
s 1
f 51/66/161 52/67/162 96/156/163 93/151/164
s off
f 53/68/165 54/69/166 56/71/167 55/70/168
s 2
f 94/153/169 95/154/170 50/73/171 49/72/172
s 3
f 50/65/173 95/155/174 96/157/175 52/67/176
s 4
f 94/152/177 49/64/178 51/66/179 93/150/180
f 55/76/181 58/80/182 57/78/183 53/77/184
s 2
f 55/70/185 56/71/186 59/82/187 58/81/188
s 3
f 60/85/189 59/83/190 56/74/191 54/75/192
s 1
f 57/79/193 60/84/194 54/69/195 53/68/196
s 4
f 58/80/182 62/88/197 61/86/198 57/78/183
s 2
f 58/81/188 59/82/187 63/90/199 62/89/200
s 3
f 64/93/201 63/91/202 59/83/190 60/85/189
s 1
f 61/87/203 64/92/204 60/84/194 57/79/193
s 4
f 62/88/197 66/96/205 65/94/206 61/86/198
s 2
f 62/89/200 63/90/199 67/98/207 66/97/208
s 3
f 68/101/209 67/99/210 63/91/202 64/93/201
s 1
f 65/95/211 68/100/212 64/92/204 61/87/203
s 4
f 66/96/205 70/104/213 69/102/214 65/94/206
s 2
f 66/97/208 67/98/207 71/106/215 70/105/216
s 3
f 72/109/217 71/107/218 67/99/210 68/101/209
s 1
f 69/103/219 72/108/220 68/100/212 65/95/211
s 4
f 70/104/213 74/112/221 73/110/222 69/102/214
s 2
f 70/105/216 71/106/215 75/114/223 74/113/224
s 3
f 76/117/225 75/115/226 71/107/218 72/109/217
s 1
f 73/111/227 76/116/228 72/108/220 69/103/219
s 4
f 74/112/221 78/120/229 77/118/230 73/110/222
s 2
f 74/113/224 75/114/223 79/122/231 78/121/232
s 3
f 80/125/233 79/123/234 75/115/226 76/117/225
s 1
f 77/119/235 80/124/236 76/116/228 73/111/227
s 4
f 78/120/229 82/128/237 81/126/238 77/118/230
s 2
f 78/121/232 79/122/231 83/130/239 82/129/240
s 3
f 84/133/241 83/131/242 79/123/234 80/125/233
s 1
f 81/127/243 84/132/244 80/124/236 77/119/235
s 4
f 82/128/237 86/136/245 85/134/246 81/126/238
s 2
f 82/129/240 83/130/239 87/138/247 86/137/248
s 3
f 88/141/249 87/139/250 83/131/242 84/133/241
s 1
f 85/135/251 88/140/252 84/132/244 81/127/243
s 4
f 86/136/245 90/144/253 89/142/254 85/134/246
s 2
f 86/137/248 87/138/247 91/146/255 90/145/256
s 3
f 92/149/257 91/147/258 87/139/250 88/141/249
s 1
f 89/143/259 92/148/260 88/140/252 85/135/251
s 4
f 90/144/253 94/152/177 93/150/180 89/142/254
s 2
f 90/145/256 91/146/255 95/154/170 94/153/169
s 3
f 96/157/175 95/155/174 91/147/258 92/149/257
s 1
f 93/151/164 96/156/163 92/148/260 89/143/259
