# This file uses centimeters as units for non-parametric coordinates.

mtllib doublepillarfenceObj.mtl
g default
v -0.100000 0.000000 1.029553
v 0.100000 0.000000 1.029553
v -0.100000 2.000000 1.029553
v 0.100000 2.000000 1.029553
v -0.100000 2.000000 0.879553
v 0.100000 2.000000 0.879553
v -0.100000 0.000000 0.879553
v 0.100000 0.000000 0.879553
v -0.100000 0.139522 0.879553
v -0.100000 0.139522 1.029553
v 0.100000 0.139522 1.029553
v 0.100000 0.139522 0.879553
v -0.100000 0.894562 0.879553
v -0.100000 0.894562 1.029553
v 0.100000 0.894562 1.029553
v 0.100000 0.894562 0.879553
v -0.100000 1.033910 0.879553
v -0.100000 1.033910 1.029553
v 0.100000 1.033910 1.029553
v 0.100000 1.033910 0.879553
v -0.100000 0.000000 0.073104
v 0.100000 0.000000 0.073104
v -0.100000 2.000000 0.073104
v 0.100000 2.000000 0.073104
v -0.100000 2.000000 -0.076896
v 0.100000 2.000000 -0.076896
v -0.100000 0.000000 -0.076896
v 0.100000 0.000000 -0.076896
v -0.100000 0.139522 -0.076896
v -0.100000 0.139522 0.073104
v 0.100000 0.139522 0.073104
v 0.100000 0.139522 -0.076896
v -0.100000 0.894562 -0.076896
v -0.100000 0.894562 0.073104
v 0.100000 0.894562 0.073104
v 0.100000 0.894562 -0.076896
v -0.100000 1.033910 -0.076896
v -0.100000 1.033910 0.073104
v 0.100000 1.033910 0.073104
v 0.100000 1.033910 -0.076896
v 0.100000 0.894562 0.490744
v 0.100000 1.033910 0.490744
v -0.100000 1.033910 0.490744
v -0.100000 0.894562 0.490744
v 0.100000 0.894562 0.415838
v 0.100000 1.033910 0.415838
v -0.100000 1.033910 0.415838
v -0.100000 0.894562 0.415838
v 0.100000 0.139522 0.490744
v -0.100000 0.139522 0.490744
v -0.100000 0.000000 0.490744
v 0.100000 0.000000 0.490744
v 0.100000 0.139522 0.412434
v -0.100000 0.139522 0.412434
v -0.100000 0.000000 0.412434
v 0.100000 0.000000 0.412434
v 0.100000 1.248302 0.490744
v -0.100000 1.248302 0.490744
v 0.100000 1.248302 0.415838
v -0.100000 1.248302 0.415838
v 0.008333 1.525442 0.456412
v -0.008333 1.525442 0.456412
v 0.008333 1.525442 0.450170
v -0.008333 1.525442 0.450170
v -0.100000 2.000000 0.073104
v 0.100000 2.000000 0.073104
v 0.100000 2.000000 -0.076896
v -0.100000 2.000000 -0.076896
v -0.100000 2.056977 1.029553
v 0.100000 2.056977 1.029553
v 0.100000 2.056977 0.879553
v -0.100000 2.056977 0.879553
v -0.100000 2.056977 0.073104
v 0.100000 2.056977 0.073104
v 0.100000 2.056977 -0.076896
v -0.100000 2.056977 -0.076896
v -0.100000 2.031143 1.147238
v 0.100000 2.031143 1.147238
v 0.100000 2.088121 1.147238
v -0.100000 2.088121 1.147238
v -0.100000 2.031143 0.761869
v 0.100000 2.031143 0.761869
v -0.100000 2.088121 0.761869
v 0.100000 2.088121 0.761869
v -0.100000 2.031143 0.190788
v 0.100000 2.031143 0.190788
v 0.100000 2.088121 0.190788
v -0.100000 2.088121 0.190788
v -0.100000 2.031143 -0.194580
v 0.100000 2.031143 -0.194580
v -0.100000 2.088121 -0.194580
v 0.100000 2.088121 -0.194580
v -0.100000 2.114998 1.216445
v 0.100000 2.114998 1.216445
v 0.100000 2.171976 1.216445
v -0.100000 2.171976 1.216445
v -0.100000 2.114998 0.692661
v 0.100000 2.114998 0.692661
v -0.100000 2.171976 0.692661
v 0.100000 2.171976 0.692661
v -0.100000 2.114998 0.259996
v 0.100000 2.114998 0.259996
v 0.100000 2.171976 0.259996
v -0.100000 2.171976 0.259996
v -0.100000 2.114998 -0.263788
v 0.100000 2.114998 -0.263788
v -0.100000 2.171976 -0.263788
v 0.100000 2.171976 -0.263788
v -0.021667 2.265932 0.970804
v 0.021667 2.265932 0.970804
v 0.021667 2.265932 0.938303
v -0.021667 2.265932 0.938303
v -0.021667 2.265932 0.014354
v 0.021667 2.265932 0.014354
v 0.021667 2.265932 -0.018146
v -0.021667 2.265932 -0.018146
vt 0.375000 0.000000
vt 0.625000 0.000000
vt 0.375000 0.250000
vt 0.625000 0.250000
vt 0.375000 0.500000
vt 0.625000 0.500000
vt 0.375000 0.750000
vt 0.625000 0.750000
vt 0.375000 1.000000
vt 0.625000 1.000000
vt 0.875000 0.000000
vt 0.875000 0.250000
vt 0.125000 0.000000
vt 0.125000 0.250000
vt 0.125000 0.017440
vt 0.375000 0.732560
vt 0.375000 0.017440
vt 0.625000 0.017440
vt 0.625000 0.732560
vt 0.875000 0.017440
vt 0.125000 0.111820
vt 0.375000 0.638180
vt 0.375000 0.111820
vt 0.625000 0.111820
vt 0.625000 0.638180
vt 0.875000 0.111820
vt 0.125000 0.129239
vt 0.375000 0.620761
vt 0.375000 0.129239
vt 0.625000 0.129239
vt 0.625000 0.620761
vt 0.875000 0.129239
vt 0.375000 0.129239
vt 0.625000 0.129239
vt 0.625000 0.250000
vt 0.375000 0.250000
vt 0.625000 0.500000
vt 0.375000 0.500000
vt 0.625000 0.620761
vt 0.375000 0.620761
vt 0.375000 0.750000
vt 0.625000 0.750000
vt 0.625000 1.000000
vt 0.375000 1.000000
vt 0.875000 0.129239
vt 0.875000 0.250000
vt 0.125000 0.129239
vt 0.125000 0.250000
vt 0.125000 0.000000
vt 0.375000 0.000000
vt 0.375000 0.017440
vt 0.125000 0.017440
vt 0.625000 0.000000
vt 0.625000 0.017440
vt 0.875000 0.000000
vt 0.875000 0.017440
vt 0.375000 0.732560
vt 0.625000 0.732560
vt 0.375000 0.111820
vt 0.125000 0.111820
vt 0.625000 0.111820
vt 0.875000 0.111820
vt 0.375000 0.638180
vt 0.625000 0.638180
vt 0.754469 0.111820
vt 0.625000 0.384409
vt 0.625000 0.383786
vt 0.754469 0.129239
vt 0.245531 0.129239
vt 0.375000 0.383786
vt 0.375000 0.384409
vt 0.245531 0.111820
vt 0.731248 0.111820
vt 0.625000 0.335519
vt 0.625000 0.338132
vt 0.731248 0.129239
vt 0.268752 0.129239
vt 0.375000 0.338132
vt 0.375000 0.335519
vt 0.268752 0.111820
vt 0.625000 0.387783
vt 0.754469 0.017440
vt 0.245531 0.017440
vt 0.375000 0.387783
vt 0.375000 0.870531
vt 0.245531 0.000000
vt 0.754469 0.000000
vt 0.625000 0.870531
vt 0.625000 0.318341
vt 0.730192 0.017440
vt 0.269808 0.017440
vt 0.375000 0.318341
vt 0.375000 0.894808
vt 0.269808 0.000000
vt 0.730192 0.000000
vt 0.625000 0.894808
vt 0.375000 0.383786
vt 0.625000 0.383786
vt 0.625000 0.338132
vt 0.375000 0.338132
vt 0.375000 0.383786
vt 0.625000 0.383786
vt 0.625000 0.338132
vt 0.375000 0.338132
vt 0.375000 0.250000
vt 0.625000 0.250000
vt 0.625000 0.500000
vt 0.375000 0.500000
vt 0.375000 0.250000
vt 0.625000 0.250000
vt 0.625000 0.500000
vt 0.375000 0.500000
vt 0.375000 0.250000
vt 0.625000 0.250000
vt 0.625000 0.500000
vt 0.375000 0.500000
vt 0.375000 0.250000
vt 0.625000 0.250000
vt 0.625000 0.250000
vt 0.375000 0.250000
vt 0.625000 0.500000
vt 0.375000 0.500000
vt 0.375000 0.500000
vt 0.625000 0.500000
vt 0.375000 0.250000
vt 0.625000 0.250000
vt 0.625000 0.250000
vt 0.375000 0.250000
vt 0.625000 0.500000
vt 0.375000 0.500000
vt 0.375000 0.500000
vt 0.625000 0.500000
vt 0.375000 0.250000
vt 0.625000 0.250000
vt 0.625000 0.250000
vt 0.375000 0.250000
vt 0.625000 0.500000
vt 0.375000 0.500000
vt 0.375000 0.500000
vt 0.625000 0.500000
vt 0.375000 0.250000
vt 0.625000 0.250000
vt 0.625000 0.250000
vt 0.375000 0.250000
vt 0.625000 0.500000
vt 0.375000 0.500000
vt 0.375000 0.500000
vt 0.625000 0.500000
vt 0.375000 0.250000
vt 0.625000 0.250000
vt 0.625000 0.500000
vt 0.375000 0.500000
vt 0.375000 0.250000
vt 0.625000 0.250000
vt 0.625000 0.500000
vt 0.375000 0.500000
vn 0.000000 0.000000 1.000000
vn 0.000000 0.000000 1.000000
vn 0.000000 0.000000 1.000000
vn 0.000000 0.000000 1.000000
vn -0.523695 0.435429 0.732219
vn 0.523695 0.435429 0.732219
vn 0.523695 0.435430 -0.732219
vn -0.523695 0.435430 -0.732219
vn 0.000000 0.000000 -1.000000
vn 0.000000 0.000000 -1.000000
vn 0.000000 0.000000 -1.000000
vn 0.000000 0.000000 -1.000000
vn 0.000000 -1.000000 0.000000
vn 0.000000 -1.000000 0.000000
vn 0.000000 -1.000000 0.000000
vn 0.000000 -1.000000 0.000000
vn 1.000000 0.000000 0.000000
vn 1.000000 0.000000 0.000000
vn 1.000000 0.000000 0.000000
vn 1.000000 0.000000 0.000000
vn -1.000000 0.000000 0.000000
vn -1.000000 0.000000 0.000000
vn -1.000000 0.000000 0.000000
vn -1.000000 0.000000 0.000000
vn -1.000000 0.000000 0.000000
vn -1.000000 0.000000 0.000000
vn -1.000000 0.000000 0.000000
vn -1.000000 0.000000 0.000000
vn 0.000000 0.000000 1.000000
vn 0.000000 0.000000 1.000000
vn 0.000000 0.000000 1.000000
vn 0.000000 0.000000 1.000000
vn 1.000000 0.000000 0.000000
vn 1.000000 0.000000 0.000000
vn 1.000000 0.000000 0.000000
vn 1.000000 0.000000 0.000000
vn -1.000000 0.000000 0.000000
vn -1.000000 0.000000 0.000000
vn 0.000000 0.000000 1.000000
vn 0.000000 0.000000 1.000000
vn 1.000000 0.000000 0.000000
vn 1.000000 0.000000 0.000000
vn 0.000000 0.000000 -1.000000
vn 0.000000 0.000000 -1.000000
vn 0.000000 0.000000 -1.000000
vn 0.000000 0.000000 -1.000000
vn 0.000000 0.000000 1.000000
vn 0.000000 0.000000 1.000000
vn 0.000000 0.000000 1.000000
vn 0.000000 0.000000 1.000000
vn -0.523695 0.435429 0.732219
vn 0.523695 0.435429 0.732219
vn 0.523695 0.435430 -0.732219
vn -0.523695 0.435430 -0.732219
vn 0.000000 0.000000 -1.000000
vn 0.000000 0.000000 -1.000000
vn 0.000000 0.000000 -1.000000
vn 0.000000 0.000000 -1.000000
vn 0.000000 -1.000000 0.000000
vn 0.000000 -1.000000 0.000000
vn 0.000000 -1.000000 0.000000
vn 0.000000 -1.000000 0.000000
vn 1.000000 0.000000 0.000000
vn 1.000000 0.000000 0.000000
vn 1.000000 0.000000 0.000000
vn 1.000000 0.000000 0.000000
vn -1.000000 0.000000 0.000000
vn -1.000000 0.000000 0.000000
vn -1.000000 0.000000 0.000000
vn -1.000000 0.000000 0.000000
vn -1.000000 0.000000 0.000000
vn -1.000000 0.000000 0.000000
vn -1.000000 0.000000 0.000000
vn -1.000000 0.000000 0.000000
vn 1.000000 0.000000 0.000000
vn 1.000000 0.000000 0.000000
vn 1.000000 0.000000 0.000000
vn 1.000000 0.000000 0.000000
vn 0.000000 0.000000 -1.000000
vn 0.000000 0.000000 -1.000000
vn 0.000000 0.000000 -1.000000
vn 0.000000 0.000000 -1.000000
vn -1.000000 0.000000 0.000000
vn -1.000000 0.000000 0.000000
vn 0.000000 0.000000 1.000000
vn 0.000000 0.000000 1.000000
vn 0.000000 0.000000 1.000000
vn 0.000000 0.000000 1.000000
vn 1.000000 0.000000 0.000000
vn 1.000000 0.000000 0.000000
vn 0.000000 0.000000 -1.000000
vn 0.000000 0.000000 -1.000000
vn 0.000000 -1.000000 0.000000
vn 0.000000 -1.000000 0.000000
vn 0.000000 -1.000000 0.000000
vn 0.000000 -1.000000 0.000000
vn -1.000000 0.000000 0.000000
vn -1.000000 0.000000 0.000000
vn -1.000000 0.000000 0.000000
vn -1.000000 0.000000 0.000000
vn 0.000000 1.000000 -0.000000
vn 0.000000 1.000000 -0.000000
vn 0.000000 1.000000 -0.000000
vn 0.000000 1.000000 -0.000000
vn 1.000000 0.000000 0.000000
vn 1.000000 0.000000 0.000000
vn 1.000000 0.000000 0.000000
vn 1.000000 0.000000 0.000000
vn -1.000000 0.000000 0.000000
vn -1.000000 0.000000 0.000000
vn -1.000000 0.000000 0.000000
vn -1.000000 0.000000 0.000000
vn 0.000000 1.000000 -0.000000
vn 0.000000 1.000000 -0.000000
vn 0.000000 1.000000 -0.000000
vn 0.000000 1.000000 -0.000000
vn 1.000000 0.000000 0.000000
vn 1.000000 0.000000 0.000000
vn 1.000000 0.000000 0.000000
vn 1.000000 0.000000 0.000000
vn 0.000000 -1.000000 -0.000000
vn 0.000000 -1.000000 -0.000000
vn 0.000000 -1.000000 -0.000000
vn 0.000000 -1.000000 -0.000000
vn 1.000000 0.000000 -0.000000
vn 1.000000 0.000000 -0.000000
vn 0.000000 1.000000 0.000000
vn 0.000000 1.000000 0.000000
vn 0.000000 1.000000 0.000000
vn 0.000000 1.000000 0.000000
vn -1.000000 0.000000 -0.000000
vn -1.000000 0.000000 -0.000000
vn 1.000000 0.000000 -0.000000
vn 1.000000 0.000000 -0.000000
vn 0.000000 1.000000 0.000000
vn 0.000000 1.000000 0.000000
vn 0.000000 1.000000 0.000000
vn 0.000000 1.000000 0.000000
vn -1.000000 0.000000 -0.000000
vn -1.000000 0.000000 -0.000000
vn 0.000000 -1.000000 0.000000
vn 0.000000 -1.000000 0.000000
vn 0.000000 -1.000000 0.000000
vn 0.000000 -1.000000 0.000000
vn -1.000000 0.000000 -0.000000
vn -1.000000 0.000000 -0.000000
vn 0.000000 -1.000000 0.000000
vn 0.000000 -1.000000 0.000000
vn 1.000000 0.000000 -0.000000
vn 1.000000 0.000000 -0.000000
vn 0.000000 1.000000 0.000000
vn 0.000000 1.000000 0.000000
vn 0.000000 1.000000 0.000000
vn 0.000000 1.000000 0.000000
vn -1.000000 0.000000 -0.000000
vn -1.000000 0.000000 -0.000000
vn 0.000000 -1.000000 0.000000
vn 0.000000 -1.000000 0.000000
vn 1.000000 0.000000 -0.000000
vn 1.000000 0.000000 -0.000000
vn 1.000000 -0.000000 0.000000
vn 1.000000 -0.000000 0.000000
vn 1.000000 -0.000000 0.000000
vn 1.000000 -0.000000 0.000000
vn 0.000000 0.000000 1.000000
vn 0.000000 0.000000 1.000000
vn 0.000000 0.000000 1.000000
vn 0.000000 0.000000 1.000000
vn -1.000000 0.000000 0.000000
vn -1.000000 0.000000 0.000000
vn -1.000000 0.000000 0.000000
vn -1.000000 0.000000 0.000000
vn 0.000000 0.004509 -0.999990
vn 0.000000 0.004509 -0.999990
vn 0.000000 0.004509 -0.999990
vn 0.000000 0.004509 -0.999990
vn 0.000000 0.000000 1.000000
vn 0.000000 0.000000 1.000000
vn 0.000000 0.044365 0.999015
vn 0.000000 0.044365 0.999015
vn 0.991648 0.128971 0.000000
vn 0.991648 0.128971 0.000000
vn 0.000000 0.000000 -1.000000
vn 0.000000 0.000000 -1.000000
vn 0.000000 0.044365 -0.999015
vn 0.000000 0.044365 -0.999015
vn -0.991648 0.128971 0.000000
vn -0.991648 0.128971 0.000000
vn 0.000000 0.122939 0.992414
vn 0.000000 0.122939 0.992414
vn 0.949414 0.314027 0.000000
vn 0.949414 0.314027 0.000000
vn 0.000000 0.122938 -0.992414
vn 0.000000 0.122938 -0.992414
vn -0.949414 0.314027 0.000000
vn -0.949414 0.314027 0.000000
vn 0.000000 0.000000 0.000000
vn 0.000000 0.000000 0.000000
vn 0.000000 0.000000 0.000000
vn 0.000000 0.000000 0.000000
vn 0.000000 0.000000 0.000000
vn 0.000000 0.000000 0.000000
vn 0.000000 0.000000 0.000000
vn 0.000000 0.000000 0.000000
vn 0.000000 0.000000 0.000000
vn 0.000000 0.000000 0.000000
vn 0.000000 0.000000 0.000000
vn 0.000000 0.000000 0.000000
vn 0.000000 0.000000 0.000000
vn 0.000000 0.000000 0.000000
vn 0.000000 0.000000 0.000000
vn 0.000000 0.000000 0.000000
vn 0.000000 0.000000 1.000000
vn 0.000000 0.000000 1.000000
vn 0.000000 0.000000 1.000000
vn 0.000000 0.000000 1.000000
vn 1.000000 0.000000 0.000000
vn 1.000000 0.000000 0.000000
vn 0.000000 0.000000 -1.000000
vn 0.000000 0.000000 -1.000000
vn 0.000000 0.000000 -1.000000
vn 0.000000 0.000000 -1.000000
vn -1.000000 0.000000 0.000000
vn -1.000000 0.000000 0.000000
vn 0.000000 0.000000 1.000000
vn 0.000000 0.000000 1.000000
vn 0.000000 0.000000 1.000000
vn 0.000000 0.000000 1.000000
vn 1.000000 0.000000 0.000000
vn 1.000000 0.000000 0.000000
vn 1.000000 0.000000 0.000000
vn 1.000000 0.000000 0.000000
vn 0.000000 0.000000 -1.000000
vn 0.000000 0.000000 -1.000000
vn 0.000000 0.000000 -1.000000
vn 0.000000 0.000000 -1.000000
vn -1.000000 0.000000 0.000000
vn -1.000000 0.000000 0.000000
vn -1.000000 0.000000 0.000000
vn -1.000000 0.000000 0.000000
vn 0.000000 -0.966722 0.255829
vn 0.000000 -0.966722 0.255829
vn 0.000000 -0.851683 0.524057
vn 0.000000 -0.851683 0.524057
vn 1.000000 0.000000 0.000000
vn 1.000000 0.000000 0.000000
vn 0.390142 0.858606 0.332543
vn -0.390142 0.858606 0.332543
vn 0.000000 0.851683 -0.524057
vn 0.000000 0.851683 -0.524057
vn -1.000000 0.000000 0.000000
vn -1.000000 0.000000 0.000000
vn 0.000000 -0.966722 -0.255829
vn 0.000000 -0.966722 -0.255829
vn 0.000000 -0.851683 -0.524057
vn 0.000000 -0.851683 -0.524057
vn -1.000000 0.000000 0.000000
vn -1.000000 0.000000 0.000000
vn -0.390141 0.858606 -0.332543
vn 0.390141 0.858606 -0.332543
vn 0.000000 0.851683 0.524057
vn 0.000000 0.851683 0.524057
vn 1.000000 0.000000 0.000000
vn 1.000000 0.000000 0.000000
vn 0.000000 -0.966722 0.255829
vn 0.000000 -0.966722 0.255829
vn 0.000000 -0.851683 0.524057
vn 0.000000 -0.851683 0.524057
vn 1.000000 0.000000 0.000000
vn 1.000000 0.000000 0.000000
vn 0.390141 0.858606 0.332543
vn -0.390141 0.858606 0.332543
vn 0.000000 0.851683 -0.524057
vn 0.000000 0.851683 -0.524057
vn -1.000000 0.000000 0.000000
vn -1.000000 0.000000 0.000000
vn 0.000000 -0.966722 -0.255829
vn 0.000000 -0.966722 -0.255829
vn 0.000000 -0.851683 -0.524057
vn 0.000000 -0.851683 -0.524057
vn -1.000000 0.000000 0.000000
vn -1.000000 0.000000 0.000000
vn -0.390141 0.858606 -0.332543
vn 0.390141 0.858606 -0.332543
vn 0.000000 0.851683 0.524057
vn 0.000000 0.851683 0.524057
vn 1.000000 0.000000 0.000000
vn 1.000000 0.000000 0.000000
vn 0.000000 -0.636533 0.771250
vn 0.000000 -0.636533 0.771250
vn 1.000000 0.000000 0.000000
vn 1.000000 0.000000 0.000000
vn 0.000000 0.636533 -0.771250
vn 0.000000 0.636533 -0.771250
vn -1.000000 0.000000 0.000000
vn -1.000000 0.000000 0.000000
vn 0.000000 -0.636534 -0.771249
vn 0.000000 -0.636534 -0.771249
vn -1.000000 0.000000 0.000000
vn -1.000000 0.000000 0.000000
vn 0.000000 0.636534 0.771249
vn 0.000000 0.636534 0.771249
vn 1.000000 0.000000 0.000000
vn 1.000000 0.000000 0.000000
vn 0.000000 -0.636534 0.771249
vn 0.000000 -0.636534 0.771249
vn 1.000000 0.000000 0.000000
vn 1.000000 0.000000 0.000000
vn 0.000000 0.636534 -0.771249
vn 0.000000 0.636534 -0.771249
vn -1.000000 0.000000 0.000000
vn -1.000000 0.000000 0.000000
vn 0.000000 -0.636534 -0.771249
vn 0.000000 -0.636534 -0.771249
vn -1.000000 0.000000 0.000000
vn -1.000000 0.000000 0.000000
vn 0.000000 0.636534 0.771249
vn 0.000000 0.636534 0.771249
vn 1.000000 0.000000 0.000000
vn 1.000000 0.000000 0.000000
s 1
g pasted__pCube2
usemtl initialShadingGroup
f 18/29/1 19/30/2 4/4/3 3/3/4
s 2
f 109/149/5 110/150/6 111/151/7 112/152/8
s off
f 5/5/9 6/6/10 20/31/11 17/28/12
f 7/7/13 8/8/14 2/10/15 1/9/16
s 3
f 19/30/17 20/32/18 6/12/19 4/4/20
s 4
f 17/27/21 18/29/22 3/3/23 5/14/24
f 7/13/25 1/1/26 10/17/27 9/15/28
s 1
f 1/1/29 2/2/30 11/18/31 10/17/32
s 3
f 2/2/33 8/11/34 12/20/35 11/18/36
s 4
f 9/15/28 10/17/27 14/23/37 13/21/38
s 1
f 10/17/32 11/18/31 15/24/39 14/23/40
s 3
f 11/18/36 12/20/35 16/26/41 15/24/42
s off
f 13/22/43 16/25/44 12/19/45 9/16/46
s 4
f 13/21/38 14/23/37 18/29/22 17/27/21
s 1
f 14/23/40 15/24/39 19/30/2 18/29/1
s 3
f 15/24/42 16/26/41 20/32/18 19/30/17
s off
f 38/33/47 39/34/48 24/35/49 23/36/50
s 8
f 113/153/51 114/154/52 115/155/53 116/156/54
s 9
f 25/38/55 26/37/56 40/39/57 37/40/58
s off
f 27/41/59 28/42/60 22/43/61 21/44/62
s 10
f 39/34/63 40/45/64 26/46/65 24/35/66
s 11
f 37/47/67 38/33/68 23/36/69 25/48/70
f 27/49/71 21/50/72 30/51/73 29/52/74
s 10
f 22/53/75 28/55/76 32/56/77 31/54/78
s 9
f 29/57/79 32/58/80 28/42/81 27/41/82
s 11
f 29/52/74 30/51/73 34/59/83 33/60/84
s off
f 30/51/85 31/54/86 35/61/87 34/59/88
s 10
f 31/54/78 32/56/77 36/62/89 35/61/90
s 9
f 33/63/91 36/64/92 32/58/80 29/57/79
s 11
f 33/60/84 34/59/83 38/33/68 37/47/67
s 10
f 35/61/90 36/62/89 40/45/64 39/34/63
s 9
f 37/40/58 40/39/57 36/64/92 33/63/91
s 15
f 8/8/93 7/7/94 51/85/95 52/88/96
s 16
f 7/13/97 9/15/98 50/83/99 51/86/100
s off
f 9/16/101 12/19/102 49/81/103 50/84/104
s 17
f 12/20/105 8/11/106 52/87/107 49/82/108
s 18
f 13/21/109 17/27/110 43/69/111 44/72/112
s off
f 17/28/113 20/31/114 42/67/115 43/70/116
s 19
f 20/32/117 16/26/118 41/65/119 42/68/120
s off
f 16/25/121 13/22/122 44/71/123 41/66/124
s 19
f 42/68/120 41/65/119 45/73/125 46/76/126
s off
f 62/101/127 61/102/128 63/103/129 64/104/130
s 18
f 44/72/112 43/69/111 47/77/131 48/80/132
s 19
f 46/76/126 45/73/125 35/61/133 39/34/134
s off
f 47/78/135 46/75/136 39/34/137 38/33/138
s 18
f 48/80/132 47/77/131 38/33/139 34/59/140
s off
f 45/74/141 48/79/142 34/59/143 35/61/144
s 16
f 51/86/100 50/83/99 54/91/145 55/94/146
s 15
f 52/88/96 51/85/95 55/93/147 56/96/148
s 17
f 49/82/108 52/87/107 56/95/149 53/90/150
s off
f 54/92/151 53/89/152 31/54/153 30/51/154
s 16
f 55/94/146 54/91/145 30/51/155 21/50/156
s 15
f 56/96/148 55/93/147 21/44/157 22/43/158
s 17
f 53/90/150 56/95/149 22/53/159 31/54/160
s off
f 45/73/161 41/65/162 49/82/163 53/90/164
f 41/66/165 44/71/166 50/84/167 49/81/168
f 44/72/169 48/80/170 54/91/171 50/83/172
f 48/79/173 45/74/174 53/89/175 54/92/176
s 20
f 43/70/177 42/67/178 57/98/179 58/97/180
s 19
f 42/67/120 46/75/126 59/99/181 57/98/182
s 21
f 46/75/183 47/78/184 60/100/185 59/99/186
s 18
f 47/78/131 43/70/111 58/97/187 60/100/188
s 20
f 58/97/180 57/98/179 61/102/189 62/101/190
s 19
f 57/98/182 59/99/181 63/103/191 61/102/192
s 21
f 59/99/186 60/100/185 64/104/193 63/103/194
s 18
f 60/100/188 58/97/187 62/101/195 64/104/196
s off
f 23/36/197 24/35/198 66/106/199 65/105/200
f 24/35/201 26/37/202 67/107/203 66/106/204
f 26/37/205 25/38/206 68/108/207 67/107/208
f 25/38/209 23/36/210 65/105/211 68/108/212
f 93/133/213 94/134/214 95/135/215 96/136/216
s 3
f 4/4/20 6/6/19 71/111/217 70/110/218
s off
f 98/137/219 97/138/220 99/139/221 100/140/222
s 4
f 5/5/24 3/3/23 69/109/223 72/112/224
s off
f 101/141/225 102/142/226 103/143/227 104/144/228
s 22
f 66/106/229 67/107/230 75/115/231 74/114/232
s off
f 106/145/233 105/146/234 107/147/235 108/148/236
s 23
f 68/108/237 65/105/238 73/113/239 76/116/240
s 24
f 3/3/241 4/4/242 78/118/243 77/117/244
s 3
f 4/4/20 70/110/218 79/119/245 78/118/246
s 2
f 70/110/247 69/109/248 80/120/249 79/119/250
s 4
f 69/109/223 3/3/23 77/117/251 80/120/252
s 25
f 6/6/253 5/5/254 81/122/255 82/121/256
s 4
f 5/5/24 72/112/224 83/123/257 81/122/258
s 2
f 72/112/259 71/111/260 84/124/261 83/123/262
s 3
f 71/111/217 6/6/19 82/121/263 84/124/264
s 26
f 65/105/265 66/106/266 86/126/267 85/125/268
s 22
f 66/106/229 74/114/232 87/127/269 86/126/270
s 8
f 74/114/271 73/113/272 88/128/273 87/127/274
s 23
f 73/113/239 65/105/238 85/125/275 88/128/276
s 27
f 67/107/277 68/108/278 89/130/279 90/129/280
s 23
f 68/108/237 76/116/240 91/131/281 89/130/282
s 8
f 76/116/283 75/115/284 92/132/285 91/131/286
s 22
f 75/115/231 67/107/230 90/129/287 92/132/288
s 24
f 77/117/244 78/118/243 94/134/289 93/133/290
s 3
f 78/118/246 79/119/245 95/135/291 94/134/292
s 2
f 79/119/250 80/120/249 96/136/293 95/135/294
s 4
f 80/120/252 77/117/251 93/133/295 96/136/296
s 25
f 82/121/256 81/122/255 97/138/297 98/137/298
s 4
f 81/122/258 83/123/257 99/139/299 97/138/300
s 2
f 83/123/262 84/124/261 100/140/301 99/139/302
s 3
f 84/124/264 82/121/263 98/137/303 100/140/304
s 26
f 85/125/268 86/126/267 102/142/305 101/141/306
s 22
f 86/126/270 87/127/269 103/143/307 102/142/308
s 8
f 87/127/274 88/128/273 104/144/309 103/143/310
s 23
f 88/128/276 85/125/275 101/141/311 104/144/312
s 27
f 90/129/280 89/130/279 105/146/313 106/145/314
s 23
f 89/130/282 91/131/281 107/147/315 105/146/316
s 8
f 91/131/286 92/132/285 108/148/317 107/147/318
s 22
f 92/132/288 90/129/287 106/145/319 108/148/320
s 2
f 69/109/248 70/110/247 110/150/6 109/149/5
f 70/110/247 71/111/260 111/151/7 110/150/6
f 71/111/260 72/112/259 112/152/8 111/151/7
f 72/112/259 69/109/248 109/149/5 112/152/8
s 8
f 73/113/272 74/114/271 114/154/52 113/153/51
f 74/114/271 75/115/284 115/155/53 114/154/52
f 75/115/284 76/116/283 116/156/54 115/155/53
f 76/116/283 73/113/272 113/153/51 116/156/54
