# This file uses centimeters as units for non-parametric coordinates.

mtllib InnerPlafonds.mtl
g default
v 0.000000 6.850338 26.770958
v 16.840693 6.850338 26.770958
v 0.000000 6.850338 14.187353
v 17.340693 6.850338 14.187353
v 22.472023 6.850338 14.187353
v 22.472023 6.850338 26.770958
vt 0.375000 0.250000
vt 0.625000 0.250000
vt 0.625000 0.500000
vt 0.375000 0.500000
vt 0.875000 0.250000
vt 0.625000 0.250000
vt 0.875000 0.250000
vn 0.000000 -1.000000 0.000000
vn 0.000000 -1.000000 0.000000
vn 0.000000 -1.000000 0.000000
vn 0.000000 -1.000000 0.000000
vn 0.000000 -1.000000 0.000000
vn 0.000000 -1.000000 0.000000
s 1
g HallFloor1 Plafonds
usemtl initialShadingGroup
f 1/1/1 3/4/2 4/3/3 2/2/4
f 4/5/3 5/7/5 6/6/6 2/2/4
g default
v 22.472023 6.849999 26.770958
v 56.000000 6.850000 22.000000
v 22.472023 6.850000 -36.147057
v 60.222832 6.850000 -36.147057
v 60.222832 6.850000 14.187355
v 47.639229 6.849999 26.770958
vt 0.004185 -0.000246
vt 1.000000 0.000000
vt -0.010430 1.016345
vt 1.000000 1.000000
vt 1.000000 0.126564
vt 0.671152 0.000000
vn 0.000000 -1.000000 0.000000
vn 0.000000 -1.000000 -0.000000
vn 0.000000 -1.000000 -0.000000
vn 0.000000 -1.000000 0.000000
vn 0.000000 -1.000000 -0.000000
vn 0.000000 -1.000000 -0.000000
s 1
g Plafonds pPlane31
usemtl initialShadingGroup
f 12/13/7 7/8/8 11/12/9 8/9/10
f 9/10/11 10/11/12 11/12/9 7/8/8
g default
v -53.613007 6.850337 26.770958
v -22.472023 6.850337 26.770958
v -53.613007 6.850338 -36.147057
v -22.472023 6.850337 -36.259655
vt 0.000000 0.000000
vt 1.000000 0.000000
vt 0.000000 1.000000
vt 1.000000 1.000000
vn -0.000000 -1.000000 -0.000000
vn -0.000000 -1.000000 -0.000000
vn -0.000000 -1.000000 -0.000000
vn -0.000000 -1.000000 -0.000000
s off
g Plafonds _R_VloerBoven
usemtl initialShadingGroup
f 13/14/13 15/16/14 16/17/15 14/15/16
g default
v -22.472023 6.850338 -23.563454
v -17.340693 6.850338 -23.563454
v -22.472023 6.850338 14.187354
v -17.340693 6.850338 14.187354
vt 0.875000 0.250000
vt 0.875000 0.250000
vt 0.875000 0.250000
vt 0.875000 0.250000
vn 0.000000 -1.000000 0.000000
vn 0.000000 -1.000000 0.000000
vn 0.000000 -1.000000 0.000000
vn 0.000000 -1.000000 0.000000
s off
g Plafonds _L_WalkwayFloor3
usemtl initialShadingGroup
f 20/20/17 19/21/18 17/19/19 18/18/20
g default
v 0.000000 6.986342 26.770958
v 16.840693 6.986342 26.770958
v 0.000000 6.986342 14.187353
v 17.340693 6.986342 14.187353
v 22.472023 6.986342 14.187353
v 22.472023 6.986342 26.770958
vt 0.375000 0.250000
vt 0.625000 0.250000
vt 0.625000 0.500000
vt 0.375000 0.500000
vt 0.875000 0.250000
vt 0.625000 0.250000
vt 0.875000 0.250000
vn 0.000000 1.000000 0.000000
vn 0.000000 1.000000 0.000000
vn 0.000000 1.000000 0.000000
vn 0.000000 1.000000 0.000000
vn 0.000000 1.000000 0.000000
vn 0.000000 1.000000 0.000000
s 1
g Plafonds HallFloor
usemtl initialShadingGroup
f 21/22/21 22/23/22 24/24/23 23/25/24
f 24/26/23 22/23/22 26/27/25 25/28/26
g default
v -0.000000 6.986342 26.770958
v -16.840694 6.986342 26.770958
v -0.000000 6.986342 14.187353
v -17.340693 6.986342 14.187353
v -22.472023 6.986342 14.187353
v -22.472023 6.986342 26.770958
vt 0.375000 0.250000
vt 0.625000 0.250000
vt 0.625000 0.500000
vt 0.375000 0.500000
vt 0.875000 0.250000
vt 0.625000 0.250000
vt 0.875000 0.250000
vn 0.000000 1.000000 0.000000
vn 0.000000 1.000000 0.000000
vn 0.000000 1.000000 0.000000
vn 0.000000 1.000000 0.000000
vn 0.000000 1.000000 0.000000
vn 0.000000 1.000000 0.000000
s 1
g Plafonds HallFloor2
usemtl initialShadingGroup
f 27/29/27 29/32/28 30/31/29 28/30/30
f 30/33/29 31/35/31 32/34/32 28/30/30
g default
v -22.472023 6.986342 -23.563454
v -17.340693 6.986342 -23.563454
v -22.472023 6.986342 14.187354
v -17.340693 6.986342 14.187354
vt 0.875000 0.250000
vt 0.875000 0.250000
vt 0.875000 0.250000
vt 0.875000 0.250000
vn 0.000000 1.000000 0.000000
vn 0.000000 1.000000 0.000000
vn 0.000000 1.000000 0.000000
vn 0.000000 1.000000 0.000000
s off
g Plafonds _L_WalkwayFloor2
usemtl initialShadingGroup
f 36/38/33 34/36/34 33/37/35 35/39/36
g default
v 22.472023 6.986343 26.770958
v 56.000000 6.986342 22.000000
v 22.472023 6.986342 -36.147057
v 60.222832 6.986342 -36.147057
v 60.222832 6.986342 14.187355
v 47.639229 6.986342 26.770958
vt 0.004185 -0.000246
vt 1.000000 0.000000
vt -0.010430 1.016345
vt 1.000000 1.000000
vt 1.000000 0.126564
vt 0.671152 0.000000
vn 0.000000 1.000000 0.000000
vn 0.000000 1.000000 0.000000
vn 0.000000 1.000000 0.000000
vn 0.000000 1.000000 0.000000
vn 0.000000 1.000000 0.000000
vn 0.000000 1.000000 0.000000
s 1
g Plafonds pPlane30
usemtl initialShadingGroup
f 42/45/37 38/41/38 41/44/39 37/40/40
f 39/42/41 37/40/40 41/44/39 40/43/42
g default
v -53.613007 6.986343 26.770958
v -22.472023 6.986343 26.770958
v -53.613007 6.986342 -36.147057
v -22.472023 6.986342 -36.259655
vt 0.000000 0.000000
vt 1.000000 0.000000
vt 0.000000 1.000000
vt 1.000000 1.000000
vn -0.000000 1.000000 -0.000000
vn -0.000000 1.000000 -0.000000
vn -0.000000 1.000000 -0.000000
vn -0.000000 1.000000 -0.000000
s off
g Plafonds _R_Plafond
usemtl initialShadingGroup
f 43/46/43 44/47/44 46/49/45 45/48/46
g default
v 22.472023 6.986342 -23.563454
v 17.340693 6.986342 -23.563454
v 22.472023 6.986342 14.187354
v 17.340693 6.986342 14.187354
vt 0.875000 0.250000
vt 0.875000 0.250000
vt 0.875000 0.250000
vt 0.875000 0.250000
vn 0.000000 1.000000 0.000000
vn 0.000000 1.000000 0.000000
vn 0.000000 1.000000 0.000000
vn 0.000000 1.000000 0.000000
s off
g Plafonds _L_WalkwayFloor
usemtl initialShadingGroup
f 50/52/47 49/53/48 47/51/49 48/50/50
g default
v -0.000000 6.850338 26.770958
v -16.840694 6.850338 26.770958
v -0.000000 6.850338 14.187353
v -17.340693 6.850338 14.187353
v -22.472023 6.850338 14.187353
v -22.472023 6.850338 26.770958
vt 0.375000 0.250000
vt 0.625000 0.250000
vt 0.625000 0.500000
vt 0.375000 0.500000
vt 0.875000 0.250000
vt 0.625000 0.250000
vt 0.875000 0.250000
vn 0.000000 -1.000000 0.000000
vn 0.000000 -1.000000 0.000000
vn 0.000000 -1.000000 0.000000
vn 0.000000 -1.000000 0.000000
vn 0.000000 -1.000000 0.000000
vn 0.000000 -1.000000 0.000000
s 1
g Plafonds HallFloor3
usemtl initialShadingGroup
f 51/54/51 52/55/52 54/56/53 53/57/54
f 54/58/53 52/55/52 56/59/55 55/60/56
g default
v 22.472023 6.850338 -23.563454
v 17.340693 6.850338 -23.563454
v 22.472023 6.850338 14.187354
v 17.340693 6.850338 14.187354
vt 0.875000 0.250000
vt 0.875000 0.250000
vt 0.875000 0.250000
vt 0.875000 0.250000
vn 0.000000 -1.000000 0.000000
vn 0.000000 -1.000000 0.000000
vn 0.000000 -1.000000 0.000000
vn 0.000000 -1.000000 0.000000
s off
g Plafonds _L_WalkwayFloor1
usemtl initialShadingGroup
f 60/63/57 58/61/58 57/62/59 59/64/60
