# This file uses centimeters as units for non-parametric coordinates.

mtllib NavmeshTestObj.mtl
g default
v -3.553202 6.986340 14.187349
v 3.553202 6.986340 14.187349
v -7.989230 0.000000 -0.675274
v 7.989230 0.000000 -0.675274
v 1.184400 6.986340 14.187349
v 2.663075 0.000000 -2.487571
v -1.184401 6.986340 14.187349
v -2.663077 0.000000 -2.487571
v -3.553202 6.986340 26.770958
v -1.184401 6.986340 26.770958
v 1.184400 6.986340 26.770958
v 3.553202 6.986340 26.770958
v -17.340693 6.986340 14.187349
v -17.340693 6.986340 26.770958
v 17.340693 6.986340 14.187349
v 17.340693 6.986340 26.770958
v -22.471996 6.986340 14.187349
v -22.471996 6.986340 26.770958
v -17.340693 6.986340 -24.365004
v -22.471996 6.986340 -24.365004
v -17.340693 3.506197 -31.886010
v -22.471996 3.506197 -31.886010
v -17.340693 3.506197 -36.147057
v -22.471996 3.506197 -36.147057
v -11.790216 3.506197 -31.886010
v -11.790216 3.506197 -36.147057
v -17.340693 0.000000 -23.162144
v -11.790216 0.000000 -23.162144
v 22.472006 6.986340 14.187349
v 22.472006 6.986340 26.770958
v 17.340693 6.986340 -24.365004
v 22.472006 6.986340 -24.365004
v 17.340693 3.506197 -31.738882
v 22.472006 3.506197 -31.738882
v 17.340693 3.506197 -36.147057
v 22.472006 3.506197 -36.147057
v 11.790216 3.506197 -31.738882
v 11.790216 3.506197 -36.147057
v 17.340693 0.039958 -23.205362
v 11.790216 0.039958 -23.205362
v 60.223386 6.986340 14.187349
v 60.223386 6.986340 26.770958
v 60.223386 6.986340 -24.365004
v 22.472006 6.986340 -36.147057
v 60.223386 6.986340 -36.147057
v -53.612999 6.986340 14.187349
v -53.612999 6.986340 26.770958
v -53.612999 6.986340 -24.365004
v -22.471996 6.986340 -36.259658
v -53.612999 6.986340 -36.259658
vt 0.000000 0.000000
vt 1.000000 0.000000
vt 0.000000 1.000000
vt 1.000000 1.000000
vt 0.666667 0.000000
vt 0.666667 1.000000
vt 0.333333 0.000000
vt 0.333333 1.000000
vt 0.000000 0.000000
vt 1.000000 0.000000
vt 1.000000 1.000000
vt 0.000000 1.000000
vt 0.000000 0.000000
vt 1.000000 0.000000
vt 1.000000 1.000000
vt 0.000000 1.000000
vt 0.000000 0.000000
vt 1.000000 0.000000
vt 1.000000 1.000000
vt 0.000000 1.000000
vt 0.000000 0.000000
vt 1.000000 0.000000
vt 1.000000 1.000000
vt 0.000000 1.000000
vt 0.000000 0.000000
vt 1.000000 0.000000
vt 1.000000 1.000000
vt 0.000000 1.000000
vt 0.000000 0.000000
vt 1.000000 0.000000
vt 1.000000 1.000000
vt 0.000000 1.000000
vt 0.000000 0.000000
vt 1.000000 0.000000
vt 1.000000 1.000000
vt 0.000000 1.000000
vt 0.000000 0.000000
vt 1.000000 0.000000
vt 1.000000 1.000000
vt 0.000000 1.000000
vt 0.000000 0.000000
vt 1.000000 0.000000
vt 1.000000 1.000000
vt 0.000000 1.000000
vt 0.000000 0.000000
vt 1.000000 0.000000
vt 1.000000 1.000000
vt 0.000000 1.000000
vt 0.000000 0.000000
vt 1.000000 0.000000
vt 1.000000 1.000000
vt 0.000000 1.000000
vt 0.000000 0.000000
vt 1.000000 0.000000
vt 1.000000 1.000000
vt 0.000000 1.000000
vt 0.000000 0.000000
vt 1.000000 0.000000
vt 1.000000 1.000000
vt 0.000000 1.000000
vt 0.000000 0.000000
vt 1.000000 0.000000
vt 1.000000 1.000000
vt 0.000000 1.000000
vt 0.000000 0.000000
vt 1.000000 0.000000
vt 1.000000 1.000000
vt 0.000000 1.000000
vt 0.000000 0.000000
vt 1.000000 0.000000
vt 1.000000 1.000000
vt 0.000000 1.000000
vt 0.000000 0.000000
vt 1.000000 0.000000
vt 1.000000 1.000000
vt 0.000000 1.000000
vt 0.000000 0.000000
vt 1.000000 0.000000
vt 1.000000 1.000000
vt 0.000000 1.000000
vt 0.000000 0.000000
vt 1.000000 0.000000
vt 1.000000 1.000000
vt 0.000000 1.000000
vt 0.000000 0.000000
vt 1.000000 0.000000
vt 1.000000 1.000000
vt 0.000000 1.000000
vt 0.000000 0.000000
vt 1.000000 0.000000
vt 1.000000 1.000000
vt 0.000000 1.000000
vt 0.000000 0.000000
vt 1.000000 0.000000
vt 1.000000 1.000000
vt 0.000000 1.000000
vt 0.000000 0.000000
vt 1.000000 0.000000
vt 1.000000 1.000000
vt 0.000000 1.000000
vn -0.091606 0.916690 -0.388958
vn -0.043320 0.920628 -0.388031
vn -0.043455 0.920620 -0.388034
vn -0.091606 0.916690 -0.388958
vn 0.043320 0.920628 -0.388031
vn 0.091606 0.916690 -0.388958
vn 0.091606 0.916690 -0.388958
vn 0.043455 0.920620 -0.388034
vn 0.000000 1.000000 0.000000
vn 0.000000 1.000000 0.000000
vn 0.000000 1.000000 0.000000
vn 0.000000 1.000000 0.000000
vn 0.000000 1.000000 0.000000
vn 0.000000 1.000000 0.000000
vn 0.000000 1.000000 0.000000
vn 0.000000 1.000000 0.000000
vn 0.000000 1.000000 0.000000
vn 0.000000 1.000000 0.000000
vn 0.000000 1.000000 0.000000
vn 0.000000 1.000000 0.000000
vn 0.000000 1.000000 0.000000
vn 0.000000 1.000000 0.000000
vn 0.000000 1.000000 0.000000
vn 0.000000 1.000000 0.000000
vn 0.000000 1.000000 0.000000
vn 0.000000 1.000000 0.000000
vn 0.000000 1.000000 0.000000
vn 0.000000 1.000000 0.000000
vn 0.000000 1.000000 0.000000
vn 0.000000 1.000000 0.000000
vn 0.000000 1.000000 0.000000
vn 0.000000 1.000000 0.000000
vn 0.000000 1.000000 0.000000
vn 0.000000 1.000000 0.000000
vn 0.000000 0.997159 -0.075320
vn 0.000000 0.997159 -0.075320
vn 0.000000 0.907550 -0.419944
vn 0.000000 0.907550 -0.419944
vn 0.000000 1.000000 0.000000
vn 0.000000 1.000000 0.000000
vn 0.000000 1.000000 0.000000
vn 0.000000 1.000000 0.000000
vn 0.000000 1.000000 0.000000
vn 0.000000 1.000000 0.000000
vn 0.000000 0.927865 0.372917
vn 0.000000 0.927865 0.372917
vn 0.000000 0.927865 0.372917
vn 0.000000 0.927865 0.372917
vn 0.000000 1.000000 0.000000
vn 0.000000 1.000000 0.000000
vn 0.000000 1.000000 0.000000
vn 0.000000 1.000000 0.000000
vn 0.000000 1.000000 0.000000
vn 0.000000 1.000000 0.000000
vn 0.000000 1.000000 0.000000
vn 0.000000 1.000000 0.000000
vn 0.000000 0.904342 -0.426809
vn 0.000000 0.904342 -0.426809
vn 0.000000 0.904342 -0.426809
vn 0.000000 0.904342 -0.426809
vn 0.000000 0.979879 0.199594
vn 0.000000 1.000000 0.000000
vn 0.000000 1.000000 0.000000
vn 0.000000 1.000000 0.000000
vn 0.000000 1.000000 0.000000
vn 0.000000 0.965953 0.258716
vn 0.000000 0.926486 0.376330
vn 0.000000 0.926486 0.376330
vn 0.000000 1.000000 0.000000
vn 0.000000 1.000000 0.000000
vn 0.000000 1.000000 0.000000
vn 0.000000 1.000000 0.000000
vn 0.000000 1.000000 0.000000
vn 0.000000 1.000000 0.000000
vn 0.000000 1.000000 0.000000
vn 0.000000 1.000000 0.000000
vn 0.000000 1.000000 0.000000
vn 0.000000 1.000000 0.000000
vn 0.000000 1.000000 0.000000
vn 0.000000 1.000000 0.000000
vn 0.000000 1.000000 0.000000
vn 0.000000 1.000000 0.000000
vn 0.000000 1.000000 0.000000
vn 0.000000 1.000000 0.000000
vn 0.000000 1.000000 0.000000
vn 0.000000 1.000000 0.000000
vn 0.000000 1.000000 0.000000
vn 0.000000 1.000000 0.000000
vn 0.000000 1.000000 0.000000
vn 0.000000 1.000000 0.000000
s 1
g pPlane32
usemtl initialShadingGroup
f 1/1/1 7/7/2 8/8/3 3/3/4
f 5/5/5 2/2/6 4/4/7 6/6/8
f 7/7/2 5/5/5 6/6/8 8/8/3
s off
f 7/9/9 1/10/10 9/11/11 10/12/12
f 2/13/13 5/14/14 11/15/15 12/16/16
f 5/17/17 7/18/18 10/19/19 11/20/20
f 9/21/21 1/22/22 13/23/23 14/24/24
f 2/25/25 12/26/26 16/27/27 15/28/28
f 14/29/29 13/30/30 17/31/31 18/32/32
s 2
f 17/33/33 13/34/34 19/35/35 20/36/36
f 20/37/36 19/38/35 21/39/37 22/40/38
s 3
f 22/41/39 21/42/40 23/43/41 24/44/42
f 23/45/41 21/46/40 25/47/43 26/48/44
s off
f 25/49/45 21/50/46 27/51/47 28/52/48
f 15/53/49 16/54/50 30/55/51 29/56/52
f 15/57/53 29/58/54 32/59/55 31/60/56
f 31/61/57 32/62/58 34/63/59 33/64/60
s 4
f 33/65/61 34/66/62 36/67/63 35/68/64
f 33/69/61 35/70/64 38/71/65 37/72/66
f 33/73/61 37/74/66 40/75/67 39/76/68
s off
f 29/77/69 30/78/70 42/79/71 41/80/72
f 32/81/73 29/82/74 41/83/75 43/84/76
f 32/85/77 43/86/78 45/87/79 44/88/80
f 18/89/81 17/90/82 46/91/83 47/92/84
s 5
f 17/93/85 20/94/86 48/95/87 46/96/88
f 48/97/87 20/98/86 49/99/89 50/100/90
